<?xml version="1.0" encoding="UTF-8"?>
<svg version="1.1" xmlns="http://www.w3.org/2000/svg" width="200" height="60">
<path d="M0 0 C66 0 132 0 200 0 C200 19.8 200 39.6 200 60 C134 60 68 60 0 60 C0 40.2 0 20.4 0 0 Z " fill="#F9F9FA" transform="translate(0,0)"/>
<path d="M0 0 C3.61932815 2.61823738 4.82190418 4.02047301 5.625 8.4375 C4.80828728 13.0927625 3.6286579 14.96377604 0 18 C-3.17373465 18.80347713 -5.82034669 18.76035188 -9 18 C-12.65522863 15.48703032 -13.7499472 13.76405021 -15.125 9.5625 C-14.95196465 4.63099242 -13.52842296 3.3680401 -10 0 C-6.1544104 -1.2818632 -3.93271581 -0.94927623 0 0 Z " fill="#283050" transform="translate(134,35)"/>
<path d="M0 0 C1.32 0 2.64 0 4 0 C3.35731596 4.45143264 2.29333357 8.58881647 0.9375 12.875 C0.57527344 14.02742188 0.21304688 15.17984375 -0.16015625 16.3671875 C-0.43730469 17.23601563 -0.71445313 18.10484375 -1 19 C-2.98 19 -4.96 19 -7 19 C-8.485 14.05 -8.485 14.05 -10 9 C-11.32 12.3 -12.64 15.6 -14 19 C-15.65 19 -17.3 19 -19 19 C-21.10396411 13.06682122 -22.75971762 7.17222879 -24 1 C-22.68 1 -21.36 1 -20 1 C-18.68 3.97 -17.36 6.94 -16 10 C-15.01 7.03 -14.02 4.06 -13 1 C-11.35 1 -9.7 1 -8 1 C-5 7.5 -5 7.5 -5 12 C-4.34 12 -3.68 12 -3 12 C-2.87625 11.13375 -2.7525 10.2675 -2.625 9.375 C-2.01941879 6.10486147 -1.11693965 3.12743101 0 0 Z " fill="#2C3454" transform="translate(179,8)"/>
<path d="M0 0 C10.56 0 21.12 0 32 0 C32 1.32 32 2.64 32 4 C30.02 4 28.04 4 26 4 C26 8.95 26 13.9 26 19 C24.68 19 23.36 19 22 19 C22 14.05 22 9.1 22 4 C18.04 4 14.08 4 10 4 C10 8.95 10 13.9 10 19 C8.35 19 6.7 19 5 19 C5 14.05 5 9.1 5 4 C3.35 4 1.7 4 0 4 C0 2.68 0 1.36 0 0 Z " fill="#434A67" transform="translate(83,8)"/>
<path d="M0 0 C1.65 0 3.3 0 5 0 C5.33773437 0.63808594 5.67546875 1.27617187 6.0234375 1.93359375 C6.46945313 2.75988281 6.91546875 3.58617187 7.375 4.4375 C7.81585938 5.26121094 8.25671875 6.08492187 8.7109375 6.93359375 C9.83418559 9.13466578 9.83418559 9.13466578 12 10 C12.268125 9.278125 12.53625 8.55625 12.8125 7.8125 C14.01531675 4.96372348 15.15327038 2.48598219 17 0 C18.32 0 19.64 0 21 0 C21 5.94 21 11.88 21 18 C19.68 18 18.36 18 17 18 C16.67 15.03 16.34 12.06 16 9 C14.68 11.31 13.36 13.62 12 16 C10.125 15.375 10.125 15.375 8 14 C6.75 10.875 6.75 10.875 6 8 C5.34 8 4.68 8 4 8 C4 11.3 4 14.6 4 18 C2.68 18 1.36 18 0 18 C0 12.06 0 6.12 0 0 Z " fill="#2D3455" transform="translate(40,9)"/>
<path d="M0 0 C1.32 0 2.64 0 4 0 C5.484375 1.6796875 5.484375 1.6796875 6.75 3.875 C7.39195313 4.95394531 7.39195313 4.95394531 8.046875 6.0546875 C9 8 9 8 9 10 C12.27286682 7.2180632 13.96427697 3.72045933 16 0 C17.32 0 18.64 0 20 0 C20 5.94 20 11.88 20 18 C18.68 18 17.36 18 16 18 C15.67 15.36 15.34 12.72 15 10 C13.02 12.97 13.02 12.97 11 16 C7.26360784 14.75453595 6.81243487 13.36595047 5 10 C4.67 12.64 4.34 15.28 4 18 C2.68 18 1.36 18 0 18 C0 12.06 0 6.12 0 0 Z " fill="#1E2548" transform="translate(79,35)"/>
<path d="M0 0 C5 0 5 0 7.01953125 1.96875 C7.61121094 2.8040625 8.20289063 3.639375 8.8125 4.5 C9.41707031 5.3353125 10.02164063 6.170625 10.64453125 7.03125 C11.09183594 7.6809375 11.53914062 8.330625 12 9 C12.33 6.03 12.66 3.06 13 0 C14.32 0 15.64 0 17 0 C17 5.94 17 11.88 17 18 C15.68 18 14.36 18 13 18 C11.078125 16.03125 11.078125 16.03125 9.25 13.5 C8.32960937 12.24703125 8.32960937 12.24703125 7.390625 10.96875 C6.70226562 9.99421875 6.70226562 9.99421875 6 9 C5.67 11.97 5.34 14.94 5 18 C3.35 18 1.7 18 0 18 C0 12.06 0 6.12 0 0 Z " fill="#2F3757" transform="translate(142,35)"/>
<path d="M0 0 C4.62 0 9.24 0 14 0 C14 1.32 14 2.64 14 4 C11.03 4 8.06 4 5 4 C5 5.32 5 6.64 5 8 C7.64 8 10.28 8 13 8 C13 8.99 13 9.98 13 11 C10.36 11 7.72 11 5 11 C5 12.32 5 13.64 5 15 C7.97 15 10.94 15 14 15 C14.33 16.32 14.66 17.64 15 19 C10.05 19 5.1 19 0 19 C0 12.73 0 6.46 0 0 Z " fill="#3B4260" transform="translate(138,8)"/>
<path d="M0 0 C1.65 0 3.3 0 5 0 C6.17374173 2.43431639 7.33915763 4.87204182 8.5 7.3125 C8.83386719 8.00279297 9.16773437 8.69308594 9.51171875 9.40429688 C12 14.66015625 12 14.66015625 12 18 C10.68 18 9.36 18 8 18 C7.67 16.68 7.34 15.36 7 14 C2.545 14.495 2.545 14.495 -2 15 C-2.33 15.99 -2.66 16.98 -3 18 C-4.65 18 -6.3 18 -8 18 C-6.65150163 13.64029169 -4.95092154 9.68658562 -2.875 5.625 C-2.33617188 4.56539062 -1.79734375 3.50578125 -1.2421875 2.4140625 C-0.83226563 1.61742187 -0.42234375 0.82078125 0 0 Z " fill="#1F2749" transform="translate(71,9)"/>
<path d="M0 0 C1.65 0 3.3 0 5 0 C6.17374173 2.43431639 7.33915763 4.87204182 8.5 7.3125 C8.83386719 8.00279297 9.16773437 8.69308594 9.51171875 9.40429688 C12 14.66015625 12 14.66015625 12 18 C10.68 18 9.36 18 8 18 C7.67 16.68 7.34 15.36 7 14 C2.545 14.495 2.545 14.495 -2 15 C-2.33 15.99 -2.66 16.98 -3 18 C-4.32 18 -5.64 18 -7 18 C-6.35534798 13.66695924 -4.81074878 10.13327935 -2.9375 6.1875 C-2.11572266 4.44533203 -2.11572266 4.44533203 -1.27734375 2.66796875 C-0.85582031 1.78753906 -0.43429688 0.90710937 0 0 Z " fill="#1D2648" transform="translate(64,35)"/>
<path d="M0 0 C1.32 0 2.64 0 4 0 C4 2.64 4 5.28 4 8 C6.97 8 9.94 8 13 8 C13 5.69 13 3.38 13 1 C14.32 1 15.64 1 17 1 C17 6.94 17 12.88 17 19 C15.68 19 14.36 19 13 19 C13 16.36 13 13.72 13 11 C10.03 11 7.06 11 4 11 C4 13.64 4 16.28 4 19 C2.68 19 1.36 19 0 19 C0 12.73 0 6.46 0 0 Z " fill="#1C2447" transform="translate(117,8)"/>
<path d="M0 0 C0.99773437 0.02320313 1.99546875 0.04640625 3.0234375 0.0703125 C4.52777344 0.09738281 4.52777344 0.09738281 6.0625 0.125 C6.83335938 0.14820313 7.60421875 0.17140625 8.3984375 0.1953125 C8.3984375 1.5153125 8.3984375 2.8353125 8.3984375 4.1953125 C5.4284375 3.8653125 2.4584375 3.5353125 -0.6015625 3.1953125 C0.0348345 6.278951 0.0348345 6.278951 2.2109375 7.109375 C2.9328125 7.34398437 3.6546875 7.57859375 4.3984375 7.8203125 C8.32891878 9.12579378 8.32891878 9.12579378 9.3984375 10.1953125 C9.6484375 13.1328125 9.6484375 13.1328125 9.3984375 16.1953125 C6.0847275 18.4044525 5.0538354 18.42012803 1.2109375 18.3203125 C0.30988281 18.30226563 -0.59117188 18.28421875 -1.51953125 18.265625 C-2.20660156 18.24242188 -2.89367187 18.21921875 -3.6015625 18.1953125 C-3.9315625 16.5453125 -4.2615625 14.8953125 -4.6015625 13.1953125 C-1.6315625 13.5253125 1.3384375 13.8553125 4.3984375 14.1953125 C4.3984375 13.5353125 4.3984375 12.8753125 4.3984375 12.1953125 C3.83253906 11.99035156 3.26664062 11.78539062 2.68359375 11.57421875 C1.95011719 11.30480469 1.21664062 11.03539062 0.4609375 10.7578125 C-0.26996094 10.49097656 -1.00085938 10.22414063 -1.75390625 9.94921875 C-3.6015625 9.1953125 -3.6015625 9.1953125 -4.6015625 8.1953125 C-4.7890625 5.2578125 -4.7890625 5.2578125 -4.6015625 2.1953125 C-2.6015625 0.1953125 -2.6015625 0.1953125 0 0 Z " fill="#232B4C" transform="translate(107.6015625,34.8046875)"/>
<path d="M0 0 C0.99773438 0.02320313 1.99546875 0.04640625 3.0234375 0.0703125 C4.52777344 0.09738281 4.52777344 0.09738281 6.0625 0.125 C6.83335938 0.14820313 7.60421875 0.17140625 8.3984375 0.1953125 C8.3984375 1.5153125 8.3984375 2.8353125 8.3984375 4.1953125 C5.7584375 4.1953125 3.1184375 4.1953125 0.3984375 4.1953125 C0.3984375 4.8553125 0.3984375 5.5153125 0.3984375 6.1953125 C1.24728516 6.50275391 1.24728516 6.50275391 2.11328125 6.81640625 C2.84675781 7.08582031 3.58023438 7.35523438 4.3359375 7.6328125 C5.06683594 7.89964844 5.79773438 8.16648437 6.55078125 8.44140625 C8.3984375 9.1953125 8.3984375 9.1953125 9.3984375 10.1953125 C9.5859375 13.1328125 9.5859375 13.1328125 9.3984375 16.1953125 C7.3984375 18.1953125 7.3984375 18.1953125 5.0859375 18.42578125 C4.1990625 18.41160156 3.3121875 18.39742187 2.3984375 18.3828125 C1.068125 18.37314453 1.068125 18.37314453 -0.2890625 18.36328125 C-2.6015625 18.1953125 -2.6015625 18.1953125 -4.6015625 17.1953125 C-4.2715625 15.8753125 -3.9415625 14.5553125 -3.6015625 13.1953125 C0.8534375 14.1853125 0.8534375 14.1853125 5.3984375 15.1953125 C4.75775774 12.10771691 4.75775774 12.10771691 2.55078125 11.24609375 C1.81988281 11.00246094 1.08898438 10.75882813 0.3359375 10.5078125 C-0.39753906 10.25644531 -1.13101563 10.00507812 -1.88671875 9.74609375 C-2.45261719 9.56433594 -3.01851562 9.38257813 -3.6015625 9.1953125 C-4.2265625 5.8203125 -4.2265625 5.8203125 -4.6015625 2.1953125 C-2.6015625 0.1953125 -2.6015625 0.1953125 0 0 Z " fill="#2B3252" transform="translate(45.6015625,34.8046875)"/>
<path d="M0 0 C2.4375 0.375 2.4375 0.375 5 1 C6.58696844 4.17393689 6.1431447 7.58174205 6.125 11.0625 C6.12886719 11.80822266 6.13273437 12.55394531 6.13671875 13.32226562 C6.12663501 18.87336499 6.12663501 18.87336499 5 20 C2.66702567 20.04092937 0.33294775 20.04241723 -2 20 C-2.05392397 17.22890693 -2.09363455 14.45886182 -2.125 11.6875 C-2.14175781 10.90181641 -2.15851562 10.11613281 -2.17578125 9.30664062 C-2.18544922 8.1706543 -2.18544922 8.1706543 -2.1953125 7.01171875 C-2.20578613 6.31522217 -2.21625977 5.61872559 -2.22705078 4.90112305 C-2 3 -2 3 0 0 Z " fill="#22294C" transform="translate(21,9)"/>
<path d="M0 0 C2.9375 0.75 2.9375 0.75 4.9375 2.75 C4.47596154 9.21153846 4.47596154 9.21153846 1.9375 11.75 C-0.83707104 12.10571424 -2.44146796 12.11405327 -4.875 10.6875 C-6.72751934 7.66496844 -6.43893703 5.20067281 -6.0625 1.75 C-3.0625 -0.25 -3.0625 -0.25 0 0 Z " fill="#EDEFF1" transform="translate(130.0625,38.25)"/>
<path d="M0 0 C5.28 0 10.56 0 16 0 C16 0.99 16 1.98 16 3 C14.02 3 12.04 3 10 3 C10 7.95 10 12.9 10 18 C8.68 18 7.36 18 6 18 C6 13.05 6 8.1 6 3 C4.35 3 2.7 3 1 3 C0.67 2.01 0.34 1.02 0 0 Z " fill="#1F264A" transform="translate(99,9)"/>
<path d="M0 0 C3.96 0.33 7.92 0.66 12 1 C12 1.33 12 1.66 12 2 C9.03 2 6.06 2 3 2 C3 3.32 3 4.64 3 6 C5.64 6 8.28 6 11 6 C11 6.99 11 7.98 11 9 C8.36 9 5.72 9 3 9 C3 10.32 3 11.64 3 13 C5.97 13 8.94 13 12 13 C12 13.33 12 13.66 12 14 C6.06 14.495 6.06 14.495 0 15 C0 10.05 0 5.1 0 0 Z " fill="#2D3555" transform="translate(140,10)"/>
<path d="M0 0 C1.32 0 2.64 0 4 0 C4 2.64 4 5.28 4 8 C5.65 8 7.3 8 9 8 C9.33 8.66 9.66 9.32 10 10 C7.03 9.505 7.03 9.505 4 9 C4 12.3 4 15.6 4 19 C2.68 19 1.36 19 0 19 C0 12.73 0 6.46 0 0 Z " fill="#282F51" transform="translate(117,8)"/>
<path d="M0 0 C0.99 0 1.98 0 3 0 C3 5.94 3 11.88 3 18 C-1 18 -1 18 -3.3125 15.75 C-5 13 -5 13 -4.75 10.6875 C-4.5025 10.130625 -4.255 9.57375 -4 9 C-2.68 9.66 -1.36 10.32 0 11 C0 7.37 0 3.74 0 0 Z " fill="#131B3F" transform="translate(156,35)"/>
<path d="M0 0 C-0.41105855 5.24099655 -1.24039194 8.24039194 -5 12 C-5.66 12 -6.32 12 -7 12 C-7.433125 10.88625 -7.433125 10.88625 -7.875 9.75 C-8.82302644 7.43260203 -9.84845911 5.22082885 -11 3 C-4.5 0 -4.5 0 0 0 Z " fill="#293150" transform="translate(29,41)"/>
<path d="M0 0 C0.33 0.66 0.66 1.32 1 2 C2.65 2 4.3 2 6 2 C6.33 4.97 6.66 7.94 7 11 C4.69 11 2.38 11 0 11 C0 10.34 0 9.68 0 9 C-0.66 9 -1.32 9 -2 9 C-2 9.66 -2 10.32 -2 11 C-2.66 11 -3.32 11 -4 11 C-2.7874262 7.27566618 -1.49140021 3.62197194 0 0 Z " fill="#293051" transform="translate(63,36)"/>
<path d="M0 0 C1.2065625 0.0309375 1.2065625 0.0309375 2.4375 0.0625 C1.1175 0.3925 -0.2025 0.7225 -1.5625 1.0625 C-1.2325 3.0425 -0.9025 5.0225 -0.5625 7.0625 C-2.2125 8.3825 -3.8625 9.7025 -5.5625 11.0625 C-5.5625 10.0725 -5.5625 9.0825 -5.5625 8.0625 C-8.2025 8.0625 -10.8425 8.0625 -13.5625 8.0625 C-13.5625 6.7425 -13.5625 5.4225 -13.5625 4.0625 C-10.5925 4.0625 -7.6225 4.0625 -4.5625 4.0625 C-4.2325 3.0725 -3.9025 2.0825 -3.5625 1.0625 C-2.5625 0.0625 -2.5625 0.0625 0 0 Z " fill="#DADBE0" transform="translate(156.5625,7.9375)"/>
<path d="M0 0 C0.99773437 0.02320313 1.99546875 0.04640625 3.0234375 0.0703125 C4.52777344 0.09738281 4.52777344 0.09738281 6.0625 0.125 C6.83335938 0.14820313 7.60421875 0.17140625 8.3984375 0.1953125 C8.3984375 1.5153125 8.3984375 2.8353125 8.3984375 4.1953125 C5.4284375 3.8653125 2.4584375 3.5353125 -0.6015625 3.1953125 C0.0584375 5.1753125 0.7184375 7.1553125 1.3984375 9.1953125 C-0.26768155 9.2380335 -1.93539135 9.23595082 -3.6015625 9.1953125 C-4.6015625 8.1953125 -4.6015625 8.1953125 -4.7890625 5.2578125 C-4.55114227 1.37178207 -3.95634016 0.29702253 0 0 Z " fill="#242C4D" transform="translate(107.6015625,34.8046875)"/>
<path d="M0 0 C1.32 0 2.64 0 4 0 C4.33 2.31 4.66 4.62 5 7 C4.34 7 3.68 7 3 7 C3 10.63 3 14.26 3 18 C2.01 18 1.02 18 0 18 C0 12.06 0 6.12 0 0 Z " fill="#171F44" transform="translate(79,35)"/>
<path d="M0 0 C0.66 0.33 1.32 0.66 2 1 C2.41699136 5.16991358 2.3941082 8.08001603 -0.0625 11.5 C-3 14 -3 14 -6.8125 13.875 C-7.864375 13.58625 -8.91625 13.2975 -10 13 C-10 12.34 -10 11.68 -10 11 C-9.05125 10.835 -8.1025 10.67 -7.125 10.5 C-3.91461699 9.38769142 -3.91461699 9.38769142 -3.2265625 7.12109375 C-2.91257355 5.68240668 -2.64301711 4.23319598 -2.421875 2.77734375 C-2.28265625 2.19082031 -2.1434375 1.60429688 -2 1 C-1.34 0.67 -0.68 0.34 0 0 Z " fill="#232A4A" transform="translate(137,39)"/>
<path d="M0 0 C1.32 0 2.64 0 4 0 C4 5.61 4 11.22 4 17 C3.01 17 2.02 17 1 17 C0.67 11.39 0.34 5.78 0 0 Z " fill="#181F43" transform="translate(57,9)"/>
<path d="M0 0 C2.4375 2.0625 2.4375 2.0625 4 4 C3.01 5.485 3.01 5.485 2 7 C1.29875 6.505 0.5975 6.01 -0.125 5.5 C-3.37119719 3.8063319 -5.39340156 3.74837685 -9 4 C-9.33 2.68 -9.66 1.36 -10 0 C-6.19426871 -1.2685771 -3.89430952 -0.88817586 0 0 Z " fill="#2A3253" transform="translate(134,35)"/>
<path d="M0 0 C0.33 0 0.66 0 1 0 C1 3.63 1 7.26 1 11 C-0.32 10.67 -1.64 10.34 -3 10 C-3.99 10 -4.98 10 -6 10 C-6.33 9.67 -6.66 9.34 -7 9 C-7.33 11.97 -7.66 14.94 -8 18 C-8.33 18 -8.66 18 -9 18 C-9.08107583 16.06318839 -9.13922475 14.1254066 -9.1875 12.1875 C-9.22230469 11.10855469 -9.25710937 10.02960937 -9.29296875 8.91796875 C-9 6 -9 6 -7.48828125 4.11328125 C-6.99714844 3.74589844 -6.50601563 3.37851562 -6 3 C-3.525 5.97 -3.525 5.97 -1 9 C-0.67 6.03 -0.34 3.06 0 0 Z " fill="#373D5B" transform="translate(155,35)"/>
<path d="M0 0 C1.32 0 2.64 0 4 0 C4.625 2.375 4.625 2.375 5 5 C3 7 3 7 0.6875 7.23046875 C-0.199375 7.21628906 -1.08625 7.20210937 -2 7.1875 C-3.3303125 7.17783203 -3.3303125 7.17783203 -4.6875 7.16796875 C-7 7 -7 7 -9 6 C-8.67 4.68 -8.34 3.36 -8 2 C-3.545 2.99 -3.545 2.99 1 4 C0.67 2.68 0.34 1.36 0 0 Z " fill="#262D4D" transform="translate(50,46)"/>
<path d="M0 0 C1.7325 0.1546875 1.7325 0.1546875 3.5 0.3125 C4.16 1.3025 4.82 2.2925 5.5 3.3125 C4.23308493 3.98658308 2.96129251 4.65150497 1.6875 5.3125 C0.97980469 5.68375 0.27210937 6.055 -0.45703125 6.4375 C-2.5 7.3125 -2.5 7.3125 -5.5 7.3125 C-5.625 4.9375 -5.625 4.9375 -5.5 2.3125 C-3.5 0.3125 -3.5 0.3125 0 0 Z " fill="#2B3253" transform="translate(22.5,35.6875)"/>
<path d="M0 0 C0.99 0.66 1.98 1.32 3 2 C3.66 1.67 4.32 1.34 5 1 C5.66 3.31 6.32 5.62 7 8 C5.906875 7.979375 4.81375 7.95875 3.6875 7.9375 C0.05615809 7.81455548 0.05615809 7.81455548 -3 9 C-2.01 6.03 -1.02 3.06 0 0 Z " fill="#2B3453" transform="translate(69,12)"/>
<path d="M0 0 C3.96 0 7.92 0 12 0 C12 1.32 12 2.64 12 4 C8.04 4 4.08 4 0 4 C0 2.68 0 1.36 0 0 Z " fill="#262C4D" transform="translate(17,30)"/>
<path d="M0 0 C0.66 0 1.32 0 2 0 C2.33 4.62 2.66 9.24 3 14 C1.68 14 0.36 14 -1 14 C-1 11.03 -1 8.06 -1 5 C-1.66 5 -2.32 5 -3 5 C-1.125 1.125 -1.125 1.125 0 0 Z " fill="#2F3756" transform="translate(96,39)"/>
<path d="M0 0 C2.97 0.99 5.94 1.98 9 3 C9 3.99 9 4.98 9 6 C2.375 6.125 2.375 6.125 -1 5 C-0.67 3.35 -0.34 1.7 0 0 Z " fill="#E1E3E7" transform="translate(42,44)"/>
<path d="M0 0 C4 6 4 6 4 10 C2.68 10 1.36 10 0 10 C-0.33 8.68 -0.66 7.36 -1 6 C-3.97 6 -6.94 6 -10 6 C-10 5.67 -10 5.34 -10 5 C-6.7 5 -3.4 5 0 5 C0 3.35 0 1.7 0 0 Z " fill="#34395B" transform="translate(72,43)"/>
<path d="M0 0 C4 4.75 4 4.75 4 7 C4.66 7.33 5.32 7.66 6 8 C4.35 8.33 2.7 8.66 1 9 C0.67 8.34 0.34 7.68 0 7 C-0.33 9.64 -0.66 12.28 -1 15 C-1.33 15 -1.66 15 -2 15 C-2 11.37 -2 7.74 -2 4 C-1.34 4 -0.68 4 0 4 C0 2.68 0 1.36 0 0 Z " fill="#424965" transform="translate(84,38)"/>
<path d="M0 0 C2.64 0 5.28 0 8 0 C8.66 1.65 9.32 3.3 10 5 C6.7 4.67 3.4 4.34 0 4 C0 2.68 0 1.36 0 0 Z " fill="#E9E9EB" transform="translate(143,19)"/>
<path d="M0 0 C1.65 0 3.3 0 5 0 C5.33 1.98 5.66 3.96 6 6 C3.37886292 6 1.49064888 5.68707555 -1 5 C-0.67 3.35 -0.34 1.7 0 0 Z " fill="#1C2346" transform="translate(71,9)"/>
<path d="M0 0 C4.29 0.33 8.58 0.66 13 1 C13 1.33 13 1.66 13 2 C8.545 2.495 8.545 2.495 4 3 C3.67 3.99 3.34 4.98 3 6 C1.35 6 -0.3 6 -2 6 C-1.34 4.02 -0.68 2.04 0 0 Z " fill="#3D4460" transform="translate(65,21)"/>
<path d="M0 0 C0.598125 0.474375 1.19625 0.94875 1.8125 1.4375 C4.00382924 3.16465744 4.00382924 3.16465744 7 4 C7 5.65 7 7.3 7 9 C6.01 9 5.02 9 4 9 C0.8217901 5.7309841 0 4.67834007 0 0 Z " fill="#232B4E" transform="translate(151,44)"/>
<path d="M0 0 C0.33 1.32 0.66 2.64 1 4 C1.66 4 2.32 4 3 4 C2.34 5.98 1.68 7.96 1 10 C2.32 10.33 3.64 10.66 5 11 C3.02 11 1.04 11 -1 11 C-2.0257259 6.58937864 -2.03684712 4.07369424 0 0 Z " fill="#39415F" transform="translate(173,16)"/>
<path d="M0 0 C0.66 0.33 1.32 0.66 2 1 C2 3.31 2 5.62 2 8 C0.68 8 -0.64 8 -2 8 C-2 5.69 -2 3.38 -2 1 C-1.34 0.67 -0.68 0.34 0 0 Z " fill="#1A2243" transform="translate(137,39)"/>
<path d="M0 0 C2 2 2 2 2.125 4.625 C2.08375 5.40875 2.0425 6.1925 2 7 C1.01 6.67 0.02 6.34 -1 6 C-1 5.01 -1 4.02 -1 3 C-2.98 3 -4.96 3 -7 3 C-7 2.34 -7 1.68 -7 1 C-4.48718205 -0.25640898 -2.78302919 -0.20872719 0 0 Z " fill="#212A4A" transform="translate(53,43)"/>
<path d="M0 0 C1.98 0.66 3.96 1.32 6 2 C5.67 2.99 5.34 3.98 5 5 C3.02 5 1.04 5 -1 5 C-1 2 -1 2 0 0 Z " fill="#DFE1E7" transform="translate(107,45)"/>
<path d="M0 0 C1.32 0 2.64 0 4 0 C3.67 1.98 3.34 3.96 3 6 C1.68 6.33 0.36 6.66 -1 7 C-0.67 4.69 -0.34 2.38 0 0 Z " fill="#313756" transform="translate(179,8)"/>
<path d="M0 0 C2.31 0 4.62 0 7 0 C6.01 0.495 6.01 0.495 5 1 C5 1.99 5 2.98 5 4 C5.99 4.33 6.98 4.66 8 5 C5.69 4.67 3.38 4.34 1 4 C0.67 2.68 0.34 1.36 0 0 Z " fill="#D9DAE2" transform="translate(107,38)"/>
<path d="M0 0 C2.375 -0.1875 2.375 -0.1875 5 0 C5.66 0.99 6.32 1.98 7 3 C4.36 3.33 1.72 3.66 -1 4 C-0.67 2.68 -0.34 1.36 0 0 Z " fill="#1C2347" transform="translate(21,36)"/>
<path d="M0 0 C-0.33 1.32 -0.66 2.64 -1 4 C-2.98 4.33 -4.96 4.66 -7 5 C-7.33 3.68 -7.66 2.36 -8 1 C-5.07175348 0.02391783 -3.04386724 -0.08226668 0 0 Z " fill="#383F5D" transform="translate(132,34)"/>
<path d="M0 0 C2.64 0.66 5.28 1.32 8 2 C7.01 2.495 7.01 2.495 6 3 C6 3.66 6 4.32 6 5 C4.35 5 2.7 5 1 5 C0.67 3.35 0.34 1.7 0 0 Z " fill="#323758" transform="translate(103,48)"/>
<path d="M0 0 C2.97 0.495 2.97 0.495 6 1 C5.34 2.32 4.68 3.64 4 5 C1.36 4.34 -1.28 3.68 -4 3 C-2.68 2.67 -1.36 2.34 0 2 C0 1.34 0 0.68 0 0 Z " fill="#2F3857" transform="translate(109,42)"/>
<path d="M0 0 C3 3.625 3 3.625 3 7 C1.35 7 -0.3 7 -2 7 C-1.125 2.25 -1.125 2.25 0 0 Z " fill="#D3D5DC" transform="translate(66,39)"/>
<path d="M0 0 C3 3.625 3 3.625 3 7 C1.68 7 0.36 7 -1 7 C-1.33 5.35 -1.66 3.7 -2 2 C-1.34 2 -0.68 2 0 2 C0 1.34 0 0.68 0 0 Z " fill="#2D3555" transform="translate(80,20)"/>
<path d="M0 0 C2.35953094 2.35953094 2.49141413 3.77895617 3 7 C1.35 7 -0.3 7 -2 7 C-1.125 1.125 -1.125 1.125 0 0 Z " fill="#D1D4DC" transform="translate(73,13)"/>
<path d="M0 0 C0.66 0.33 1.32 0.66 2 1 C2 3.31 2 5.62 2 8 C1.01 8.33 0.02 8.66 -1 9 C-1.66 7.02 -2.32 5.04 -3 3 C-2.34 3 -1.68 3 -1 3 C-0.67 2.01 -0.34 1.02 0 0 Z " fill="#DFE1E5" transform="translate(118,40)"/>
<path d="M0 0 C0.33 0.66 0.66 1.32 1 2 C1.66 2 2.32 2 3 2 C2.67 3.65 2.34 5.3 2 7 C3.32 7.33 4.64 7.66 6 8 C3.69 8 1.38 8 -1 8 C-0.67 5.36 -0.34 2.72 0 0 Z " fill="#D1D4DD" transform="translate(55,46)"/>
<path d="M0 0 C1.32 0 2.64 0 4 0 C4.625 2.375 4.625 2.375 5 5 C4.34 5.66 3.68 6.32 3 7 C2.01 7 1.02 7 0 7 C0 4.69 0 2.38 0 0 Z " fill="#383E5E" transform="translate(50,46)"/>
<path d="M0 0 C2.64 0 5.28 0 8 0 C8 1.32 8 2.64 8 4 C5.36 3.34 2.72 2.68 0 2 C0 1.34 0 0.68 0 0 Z " fill="#20274A" transform="translate(46,35)"/>
<path d="M0 0 C2.97 0 5.94 0 9 0 C6 3 6 3 2.8125 3.1875 C1.4203125 3.0946875 1.4203125 3.0946875 0 3 C0 2.01 0 1.02 0 0 Z " fill="#F5F7F7" transform="translate(143,12)"/>
<path d="M0 0 C1.32 0 2.64 0 4 0 C3.67 2.31 3.34 4.62 3 7 C1.5 5.6875 1.5 5.6875 0 4 C0 2.66666667 0 1.33333333 0 0 Z " fill="#202649" transform="translate(25,41)"/>
<path d="M0 0 C1.32 0 2.64 0 4 0 C3.67 2.64 3.34 5.28 3 8 C0.4345406 5.4345406 0.45953913 3.52313332 0 0 Z " fill="#1A2044" transform="translate(155,9)"/>
<path d="M0 0 C3.96 0.33 7.92 0.66 12 1 C12 1.33 12 1.66 12 2 C9.03 2 6.06 2 3 2 C2.67 3.32 2.34 4.64 2 6 C2 4.68 2 3.36 2 2 C1.34 2 0.68 2 0 2 C0 1.34 0 0.68 0 0 Z " fill="#444B6A" transform="translate(140,10)"/>
<path d="M0 0 C1.5 1.3125 1.5 1.3125 3 3 C3 3.99 3 4.98 3 6 C1.68 6 0.36 6 -1 6 C-0.67 4.02 -0.34 2.04 0 0 Z " fill="#262E4D" transform="translate(73,47)"/>
<path d="M0 0 C1 3 1 3 0 6 C-0.99 6.33 -1.98 6.66 -3 7 C-3 5.02 -3 3.04 -3 1 C-2.01 0.67 -1.02 0.34 0 0 Z " fill="#172044" transform="translate(24,17)"/>
<path d="M0 0 C0.99 0 1.98 0 3 0 C3 1.32 3 2.64 3 4 C1.02 4.99 1.02 4.99 -1 6 C-0.67 4.02 -0.34 2.04 0 0 Z " fill="#1D2547" transform="translate(95,35)"/>
<path d="M0 0 C1.65 0 3.3 0 5 0 C5.33 0.99 5.66 1.98 6 3 C4.02 3 2.04 3 0 3 C0 2.01 0 1.02 0 0 Z " fill="#22294C" transform="translate(64,35)"/>
<path d="M0 0 C2 2 2 2 2 6 C0.68 6 -0.64 6 -2 6 C-2 4.68 -2 3.36 -2 2 C-1.34 2 -0.68 2 0 2 C0 1.34 0 0.68 0 0 Z " fill="#182044" transform="translate(176,20)"/>
<path d="M0 0 C0.66 0.66 1.32 1.32 2 2 C1.625 5.125 1.625 5.125 1 8 C0.01 7.67 -0.98 7.34 -2 7 C-1.34 4.69 -0.68 2.38 0 0 Z " fill="#172043" transform="translate(164,18)"/>
<path d="M0 0 C0.66 0 1.32 0 2 0 C1.67 2.64 1.34 5.28 1 8 C0.34 7.34 -0.32 6.68 -1 6 C-0.625 2.875 -0.625 2.875 0 0 Z " fill="#1E2646" transform="translate(171,13)"/>
</svg>
